<svg width="96" height="92" viewBox="0 0 96 92" fill="none" xmlns="http://www.w3.org/2000/svg">
<path d="M86.3868 38.7826H91.1986C91.9336 38.7826 92.4726 38.0868 92.2766 37.3714L92.2472 37.2342L92.1786 36.9696L92.0414 36.4502C91.9434 36.1072 91.8454 35.774 91.7474 35.4506C91.5514 34.794 91.3358 34.1374 91.1104 33.5004C90.6694 32.2166 90.1794 30.9426 89.6502 29.698C89.121 28.4534 88.5526 27.2284 87.945 26.023C87.3374 24.8176 86.6808 23.6318 86.0046 22.4754C83.2704 17.8302 79.8306 13.5476 75.7146 10.0294C74.6856 9.14736 73.6174 8.31436 72.51 7.53036C71.4026 6.75616 70.256 6.03096 69.08 5.36456C67.904 4.70796 66.6888 4.11016 65.4638 3.56136C64.229 3.02236 62.9746 2.55196 61.7006 2.13056C56.5948 0.48416 51.244 -0.13324 45.9912 0.0235595C43.3648 0.10196 40.7384 0.376359 38.161 0.866359C36.8674 1.12116 35.5836 1.40536 34.3292 1.77776C33.6922 1.94436 33.0748 2.15996 32.4476 2.35596C32.134 2.45396 31.8302 2.57156 31.5166 2.68916C31.203 2.79696 30.8992 2.91456 30.5954 3.03216C25.7052 4.93336 21.2266 7.82436 17.4634 11.4014C13.6904 14.9784 10.623 19.2316 8.20236 23.7592C6.98716 26.0328 5.92876 28.375 5.02716 30.7858C4.57636 31.9912 4.17456 33.2064 3.80216 34.4314C3.42976 35.6564 3.09656 36.901 2.85156 38.1554C3.43956 35.6662 4.29216 33.2358 5.26236 30.874C6.24236 28.5122 7.37916 26.219 8.66296 24.014C9.94676 21.809 11.3972 19.7118 12.9946 17.742C14.6018 15.7722 16.356 13.9298 18.267 12.2834C20.1682 10.6174 22.2262 9.15716 24.4018 7.89296C26.5774 6.63856 28.8804 5.60956 31.252 4.82556C31.546 4.71776 31.8498 4.62956 32.1438 4.54136C32.4476 4.45316 32.7416 4.35516 33.0454 4.27676C33.653 4.11996 34.2508 3.94356 34.8584 3.81616C36.0736 3.52216 37.3084 3.31636 38.5432 3.13016C41.0226 2.79696 43.5216 2.67936 46.0108 2.73816C48.5098 2.79696 50.9892 3.05176 53.4196 3.49276L53.8802 3.57116L54.331 3.66916L55.2326 3.86516L56.1244 4.09056L56.5752 4.20816L57.0162 4.33556L57.8982 4.59036L58.7704 4.87456L59.2114 5.02156L59.6426 5.17836C59.9268 5.28616 60.2208 5.38416 60.505 5.50176C61.6418 5.95256 62.759 6.45236 63.837 7.00116C64.915 7.55976 65.9734 8.16736 66.9926 8.83376C68.002 9.50016 68.9918 10.2156 69.9326 10.9702C70.8734 11.7248 71.775 12.5382 72.6472 13.381C76.087 16.7914 78.8702 20.829 81.0262 25.1802C82.114 27.3558 83.0156 29.6196 83.7702 31.9226C83.7702 31.9226 84.564 34.794 85.2696 37.9006C85.397 38.42 85.8576 38.7826 86.3868 38.7826Z" fill="white"/>
<path d="M0 40.2036C1.0094 40.184 2.0286 40.2134 3.0282 40.38C4.0376 40.5368 5.0078 40.87 5.9682 41.1542C7.889 41.752 9.9176 41.801 11.907 41.6442C12.8968 41.5658 13.8768 41.3894 14.8176 41.0954C15.288 40.9484 15.7682 40.7818 16.2484 40.6152C16.7384 40.4584 17.2284 40.3016 17.738 40.1938C18.7474 39.9586 19.7862 39.8606 20.8152 39.841C21.8442 39.8214 22.8732 39.8508 23.9022 40.0076C24.157 40.0468 24.4216 40.086 24.6764 40.1448C24.9312 40.1938 25.186 40.2624 25.431 40.331C25.9308 40.4682 26.4208 40.625 26.901 40.772C27.8516 41.0856 28.7924 41.3012 29.7724 41.3894C30.7426 41.4874 31.7422 41.4972 32.7222 41.4482C33.712 41.3992 34.6724 41.262 35.6034 40.9974C36.5344 40.7426 37.485 40.3604 38.514 40.1154C39.5332 39.8704 40.5818 39.7528 41.6206 39.7234C42.6496 39.6842 43.6884 39.7136 44.7272 39.8508C45.766 39.9782 46.795 40.2722 47.7554 40.5956C48.706 40.919 49.6272 41.1836 50.5974 41.3012C51.5578 41.4286 52.5476 41.4678 53.5374 41.4286C54.5174 41.3992 55.4876 41.3012 56.4382 41.0758C57.379 40.8504 58.31 40.478 59.3292 40.2134C60.3386 39.939 61.3872 39.8018 62.426 39.7626C63.455 39.7332 64.4938 39.743 65.5228 39.8606C66.5518 39.9782 67.5906 40.2232 68.5608 40.5564C69.0508 40.723 69.5114 40.8798 69.9818 41.017C70.217 41.0856 70.4522 41.1542 70.6874 41.2032C70.9226 41.262 71.1676 41.3012 71.4028 41.3502C72.3632 41.5168 73.3628 41.5658 74.3526 41.5658C75.3424 41.5658 76.3322 41.4874 77.2926 41.3012C77.7728 41.213 78.253 41.0758 78.7332 40.9386C79.2134 40.7916 79.6936 40.6348 80.1934 40.4976C81.1832 40.2232 82.2122 40.0566 83.2412 40.0076L83.6234 39.988C83.7508 39.988 83.8782 39.988 84.0056 39.988C84.2604 39.988 84.5152 39.9782 84.77 39.9978L85.5344 40.0272L86.2988 40.0958C86.5536 40.1252 86.8084 40.1644 87.0632 40.1938C87.318 40.233 87.563 40.282 87.8178 40.3408C88.3176 40.4584 88.8076 40.5858 89.2878 40.7524C90.2482 41.0758 91.189 41.4384 92.1788 41.6344C93.1588 41.8402 94.1682 41.9284 95.1776 41.9578C94.1682 41.9774 93.149 41.948 92.1494 41.7814C91.14 41.6246 90.1698 41.2914 89.2094 41.0072C87.2886 40.4094 85.26 40.3604 83.2804 40.5172C82.2906 40.5956 81.3106 40.772 80.3698 41.066C79.8994 41.213 79.4192 41.3796 78.939 41.5462C78.449 41.703 77.959 41.8598 77.4494 41.9676C76.44 42.2028 75.4012 42.3008 74.3722 42.3204C73.3432 42.34 72.3142 42.3106 71.2852 42.1636C71.0304 42.1244 70.7658 42.0852 70.511 42.0264C70.2562 41.9774 70.0014 41.9088 69.7564 41.8402C69.2566 41.703 68.7666 41.5462 68.2864 41.3992C67.3358 41.0856 66.395 40.87 65.415 40.772C64.4448 40.674 63.4452 40.6642 62.4652 40.7132C61.4754 40.7622 60.515 40.8994 59.584 41.164C58.653 41.4188 57.7024 41.801 56.6734 42.046C55.6542 42.291 54.6056 42.4086 53.5668 42.4478C52.5378 42.487 51.499 42.4576 50.4602 42.3204C49.4214 42.193 48.3924 41.899 47.432 41.5756C46.4814 41.2522 45.5602 40.9876 44.59 40.87C43.6296 40.7426 42.6398 40.7034 41.65 40.7328C40.67 40.7622 39.69 40.8602 38.7492 41.0856C37.8084 41.311 36.8774 41.6834 35.8582 41.948C34.8488 42.2224 33.8002 42.3596 32.7614 42.3988C31.7324 42.4282 30.6936 42.4184 29.6646 42.3008C28.6356 42.1832 27.5968 41.9382 26.6266 41.605C26.1366 41.4384 25.676 41.2816 25.2056 41.1444C24.9704 41.0758 24.7352 41.0072 24.5 40.9582C24.2648 40.8994 24.0198 40.8602 23.7846 40.8112C22.8242 40.6446 21.8246 40.5956 20.8348 40.5956C19.845 40.5956 18.8552 40.674 17.8948 40.8602C17.4146 40.9484 16.9344 41.0856 16.4542 41.2228C15.974 41.3698 15.4938 41.5266 14.994 41.6638C14.0042 41.9382 12.9752 42.1048 11.9462 42.1538L11.564 42.1734C11.4366 42.1734 11.3092 42.1734 11.1818 42.1734C10.927 42.1734 10.6722 42.1832 10.4174 42.1636L9.653 42.1342L8.8886 42.0656C8.6338 42.0362 8.379 41.997 8.1242 41.9676C7.8694 41.9284 7.6244 41.8794 7.3696 41.8206C6.8698 41.703 6.3798 41.5756 5.8996 41.409C4.9392 41.0856 3.9984 40.723 3.0086 40.527C2.009 40.3212 1.0094 40.2428 0 40.2036Z" fill="#FFD413"/>
<path d="M5.8015 57.4614H0.166504V44.79H5.8015C7.8693 45.0252 9.3001 46.1718 10.0841 48.2298C10.4761 49.1902 10.6623 50.1604 10.6623 51.1404C10.6623 52.1204 10.4663 53.0808 10.0841 54.0412C9.3001 56.0796 7.8693 57.2262 5.8015 57.4614ZM7.2127 51.013C7.2029 48.6316 6.3209 47.4066 4.5569 47.338H3.8807V54.8448L4.5569 54.8644C6.3307 54.688 7.2225 53.3944 7.2127 51.013Z" fill="#FFD413"/>
<path d="M11.4561 57.4614V44.79H19.2667V46.2796C19.2667 47.2792 18.7865 47.7692 17.8163 47.7692H15.1703V49.592H18.8943V51.0914C18.8943 52.091 18.4141 52.5908 17.4439 52.5908H15.1703V54.4724H19.2667V55.962C19.2667 56.9616 18.7865 57.4516 17.8163 57.4516H11.4561V57.4614Z" fill="#FFD413"/>
<path d="M30.1055 53.708C30.1055 56.207 28.7825 57.4614 26.1267 57.4614H22.0695H20.2075V55.8248V46.4168V44.7802H22.0695H25.8425C28.3709 44.7802 29.6351 45.7896 29.6351 47.8084C29.6351 49.1314 29.1255 50.0526 28.1161 50.572C29.4391 51.209 30.1055 52.2576 30.1055 53.708ZM26.1267 48.563C26.1267 47.7496 25.7151 47.338 24.9017 47.338H23.9217V49.7782H24.9311C25.7347 49.7782 26.1267 49.3764 26.1267 48.563ZM26.3913 53.5022C26.3913 52.5908 25.9307 52.1302 25.0193 52.1302H23.9315V54.8742H25.0585C25.9405 54.8742 26.3913 54.4136 26.3913 53.5022Z" fill="#FFD413"/>
<path d="M40.8954 54.0216C40.8954 55.2172 40.3858 56.109 39.3666 56.6872C38.3474 57.2654 37.191 57.5594 35.8974 57.5594C34.6038 57.5594 33.4474 57.2654 32.4282 56.6872C31.409 56.109 30.8994 55.2172 30.8994 54.0216V44.7802H32.7614C33.9962 44.7802 34.6234 45.329 34.6234 46.4168V53.4728C34.6234 54.1882 35.0448 54.541 35.8974 54.541C36.75 54.541 37.1714 54.1882 37.1714 53.4728V44.7802H39.0334C40.2682 44.7802 40.8954 45.329 40.8954 46.4168V54.0216Z" fill="#FFD413"/>
<path d="M49.627 52.0714L51.3126 54.3842C51.7732 54.933 51.9888 55.423 51.9692 55.864C51.9496 56.305 51.7242 56.697 51.293 57.0498C50.8618 57.4026 50.411 57.5692 49.9406 57.5496C49.4604 57.53 48.9802 57.2458 48.4902 56.6676L45.5502 52.6496V55.8248C45.5502 56.9126 44.9328 57.4614 43.6882 57.4614H41.8262V44.79H43.6882H47.9022C48.941 44.79 49.8034 45.1918 50.4894 45.9856C51.1754 46.7794 51.5184 47.6418 51.5184 48.5532C51.5184 50.1898 50.8912 51.356 49.627 52.0714ZM45.5502 47.338V50.229H46.6184C47.667 50.229 48.1962 49.7488 48.1962 48.7786C48.1962 47.8182 47.667 47.3282 46.6184 47.3282H45.5502V47.338Z" fill="#FFD413"/>
<path d="M64.4641 49.69V54.835C64.4641 55.6092 64.0525 56.2658 63.2293 56.7852C62.4061 57.3144 61.0439 57.5692 59.1623 57.5692C57.2807 57.5692 55.7029 56.9616 54.4485 55.7562C53.1941 54.541 52.5571 52.9632 52.5571 51.0032C52.5571 49.0432 53.1843 47.4556 54.4387 46.2404C55.6931 45.0252 57.1925 44.4176 58.9467 44.4176C60.7009 44.4176 62.0435 44.692 62.9549 45.2408C63.8761 45.7896 64.3367 46.309 64.3465 46.7892C64.3563 47.2694 64.1995 47.7006 63.8761 48.0828C63.5429 48.465 63.2293 48.6512 62.9059 48.6512C62.5923 48.6512 62.1317 48.5042 61.5339 48.2004C60.9361 47.8966 60.1325 47.7398 59.1231 47.73C58.1137 47.7202 57.3689 48.024 56.8887 48.6512C56.3987 49.2784 56.1635 50.0722 56.1635 51.013C56.1635 51.9636 56.4281 52.7378 56.9671 53.3552C57.5061 53.9726 58.2215 54.2666 59.1035 54.2568C59.9953 54.247 60.5539 54.1098 60.7793 53.8648V52.8554H60.2011C59.0741 52.8554 58.5155 52.3262 58.5155 51.2776V49.6998H64.4641V49.69Z" fill="#FFD413"/>
<path d="M75.3915 54.0216C75.3915 55.2172 74.8819 56.109 73.8627 56.6872C72.8435 57.2654 71.6871 57.5594 70.3935 57.5594C69.0999 57.5594 67.9435 57.2654 66.9243 56.6872C65.9051 56.109 65.3955 55.2172 65.3955 54.0216V44.7802H67.2575C68.4923 44.7802 69.1195 45.329 69.1195 46.4168V53.4728C69.1195 54.1882 69.5409 54.541 70.3935 54.541C71.2461 54.541 71.6675 54.1882 71.6675 53.4728V44.7802H73.5295C74.7643 44.7802 75.3915 45.329 75.3915 46.4168V54.0216Z" fill="#FFD413"/>
<path d="M76.332 57.4614V44.79H84.1426V46.2796C84.1426 47.2792 83.6624 47.7692 82.6922 47.7692H80.0462V49.592H83.7702V51.0914C83.7702 52.091 83.29 52.5908 82.3198 52.5908H80.0462V54.4724H84.1426V55.962C84.1426 56.9616 83.6624 57.4516 82.6922 57.4516H76.332V57.4614Z" fill="#FFD413"/>
<path d="M92.8746 52.0714L94.5602 54.3842C95.0208 54.933 95.2364 55.423 95.2168 55.864C95.1972 56.305 94.9718 56.697 94.5406 57.0498C94.1094 57.4026 93.6586 57.5692 93.1882 57.5496C92.708 57.53 92.2278 57.2458 91.728 56.6676L88.788 52.6496V55.8248C88.788 56.9126 88.1706 57.4614 86.926 57.4614H85.064V44.79H86.926H91.1302C92.169 44.79 93.0314 45.1918 93.7174 45.9856C94.4034 46.7794 94.7464 47.6418 94.7464 48.5532C94.766 50.1898 94.1388 51.356 92.8746 52.0714ZM88.7978 47.338V50.229H89.866C90.9146 50.229 91.4438 49.7488 91.4438 48.7786C91.4438 47.8182 90.9146 47.3282 89.866 47.3282H88.7978V47.338Z" fill="#FFD413"/>
<path d="M5.8015 57.4614H0.166504V44.79H5.8015C7.8693 45.0252 9.3001 46.1718 10.0841 48.2298C10.4761 49.1902 10.6623 50.1604 10.6623 51.1404C10.6623 52.1204 10.4663 53.0808 10.0841 54.0412C9.3001 56.0796 7.8693 57.2262 5.8015 57.4614ZM7.2127 51.013C7.2029 48.6316 6.3209 47.4066 4.5569 47.338H3.8807V54.8448L4.5569 54.8644C6.3307 54.688 7.2225 53.3944 7.2127 51.013Z" fill="white"/>
<path d="M11.4561 57.4614V44.79H19.2667V46.2796C19.2667 47.2792 18.7865 47.7692 17.8163 47.7692H15.1703V49.592H18.8943V51.0914C18.8943 52.091 18.4141 52.5908 17.4439 52.5908H15.1703V54.4724H19.2667V55.962C19.2667 56.9616 18.7865 57.4516 17.8163 57.4516H11.4561V57.4614Z" fill="white"/>
<path d="M5.83115 59.1764C6.68375 59.1764 7.11495 59.5488 7.11495 60.3034V66.791C7.11495 67.5456 6.68375 67.918 5.83115 67.918C4.97855 67.918 4.54735 67.5456 4.54735 66.791V64.5664H2.80295V66.791C2.80295 67.5456 2.37175 67.918 1.51915 67.918C0.666552 67.918 0.235352 67.5456 0.235352 66.791V60.3034C0.235352 59.5488 0.666552 59.1764 1.51915 59.1764C2.37175 59.1764 2.80295 59.5488 2.80295 60.3034V62.4888H4.54735V60.3034C4.55715 59.5488 4.97855 59.1764 5.83115 59.1764Z" fill="white"/>
<path d="M10.4075 66.3794L10.1625 67.036C9.94694 67.624 9.58434 67.918 9.07474 67.918C8.57494 67.918 8.21234 67.7612 7.99674 67.4574C7.78114 67.1536 7.67334 66.8694 7.67334 66.6244C7.67334 66.3794 7.72234 66.1344 7.83994 65.8992L10.5055 60.0584C10.7701 59.4704 11.1817 59.1764 11.7305 59.1764C12.2793 59.1764 12.6909 59.4704 12.9555 60.0584L15.6407 65.8992C15.7485 66.1442 15.8073 66.3892 15.8073 66.6342C15.8073 66.8792 15.6995 67.1536 15.4937 67.4672C15.2781 67.771 14.9253 67.9278 14.4059 67.9278C13.8963 67.9278 13.5239 67.6338 13.3083 67.0458L13.0633 66.3892H10.4075V66.3794ZM12.2793 64.3018L11.7207 62.7828L11.1621 64.3018H12.2793Z" fill="white"/>
<path d="M20.6195 61.8714L22.4227 59.7056C22.7167 59.3528 23.1087 59.1764 23.6183 59.1764C24.4709 59.1764 24.9021 59.5488 24.9021 60.3034V66.791C24.9021 67.5456 24.4709 67.918 23.6183 67.918C22.7657 67.918 22.3345 67.5456 22.3345 66.791V63.214L20.6195 65.223L18.9143 63.2336V66.791C18.9143 67.5456 18.4831 67.918 17.6305 67.918C16.7779 67.918 16.3467 67.5456 16.3467 66.791V60.3034C16.3467 59.539 16.7779 59.1666 17.6305 59.1764C18.1205 59.1764 18.5125 59.3528 18.8065 59.7056L20.6195 61.8714Z" fill="white"/>
<path d="M32.3599 65.3308C32.3599 67.0556 31.4485 67.918 29.6159 67.918H26.8229C25.9703 67.918 25.5391 67.5456 25.5391 66.791V60.3034C25.5391 59.5488 25.9703 59.1764 26.8229 59.1764H29.4297C31.1741 59.1764 32.0463 59.8722 32.0463 61.2638C32.0463 62.1752 31.6935 62.8122 30.9977 63.165C31.8993 63.606 32.3599 64.3312 32.3599 65.3308ZM29.6159 61.7832C29.6159 61.2246 29.3317 60.9404 28.7731 60.9404H28.0969V62.626H28.7927C29.3415 62.626 29.6159 62.3418 29.6159 61.7832ZM29.7923 65.1838C29.7923 64.5566 29.4787 64.243 28.8515 64.243H28.0969V66.1344H28.8711C29.4885 66.1344 29.7923 65.8208 29.7923 65.1838Z" fill="white"/>
<path d="M39.7981 65.5464C39.7981 66.3696 39.4453 66.987 38.7495 67.379C38.0439 67.7808 37.2501 67.9768 36.3583 67.9768C35.4665 67.9768 34.6629 67.7808 33.9671 67.379C33.2615 66.9772 32.9185 66.3696 32.9185 65.5464V60.3034C32.9185 59.5488 33.3497 59.1764 34.2023 59.1764C35.0549 59.1764 35.4861 59.5488 35.4861 60.3034V65.174C35.4861 65.664 35.7801 65.909 36.3681 65.909C36.9561 65.909 37.2501 65.664 37.2501 65.174V60.3034C37.2501 59.5488 37.6813 59.1764 38.5339 59.1764C39.3865 59.1764 39.8177 59.5488 39.8177 60.3034V65.5464H39.7981Z" fill="white"/>
<path d="M41.7286 67.918C40.876 67.918 40.4448 67.5456 40.4448 66.791V60.3034C40.4448 59.5488 40.876 59.1764 41.7286 59.1764H44.8352C45.5016 59.1764 45.8348 59.5194 45.8348 60.2054C45.8348 60.8914 45.5016 61.2344 44.8352 61.2344H43.0124V62.4888H44.5804C45.2468 62.4888 45.58 62.8318 45.58 63.5276C45.58 64.2136 45.2468 64.5664 44.5804 64.5664H43.0124V65.86H44.8352C45.5016 65.86 45.8348 66.203 45.8348 66.889C45.8348 67.575 45.5016 67.918 44.8352 67.918H41.7286Z" fill="white"/>
<path d="M51.8519 64.2038L53.1357 65.8894C53.3219 66.1442 53.4199 66.4088 53.4199 66.693C53.4199 66.9772 53.2435 67.2516 52.9005 67.5162C52.5575 67.7808 52.2341 67.918 51.9499 67.918C51.6657 67.918 51.3913 67.7416 51.1267 67.3888L49.0393 64.6056V66.791C49.0393 67.5456 48.6081 67.918 47.7555 67.918C46.9029 67.918 46.4717 67.5456 46.4717 66.791V60.3034C46.4717 59.5488 46.9029 59.1764 47.7555 59.1764H50.6563C51.3717 59.1764 51.9695 59.4508 52.4399 59.9996C52.9103 60.5484 53.1553 61.1364 53.1553 61.7734C53.1651 62.9004 52.7241 63.7138 51.8519 64.2038ZM49.0393 60.9404V62.9298H49.7743C50.4995 62.9298 50.8621 62.5966 50.8621 61.9302C50.8621 61.2638 50.4995 60.9306 49.7743 60.9306H49.0393V60.9404Z" fill="white"/>
<path d="M62.083 63.7334V66.105C62.083 66.644 61.7988 67.085 61.2304 67.4476C60.662 67.8102 59.731 67.9866 58.4276 67.9866C57.1242 67.9866 56.0462 67.5652 55.174 66.7322C54.3018 65.8992 53.8706 64.8016 53.8706 63.4492C53.8706 62.0968 54.3018 60.9992 55.1642 60.1662C56.0266 59.3234 57.0654 58.9118 58.2708 58.9118C59.486 58.9118 60.4072 59.098 61.0344 59.4802C61.6714 59.8624 61.985 60.2152 61.9948 60.5484C62.0046 60.8816 61.8968 61.1756 61.6714 61.4402C61.446 61.7048 61.2206 61.8322 61.005 61.8322C60.7894 61.8322 60.4758 61.7244 60.0642 61.5186C59.6526 61.3128 59.094 61.205 58.408 61.1952C57.7122 61.1854 57.2026 61.401 56.8596 61.8322C56.5264 62.2634 56.3598 62.8122 56.3598 63.459C56.3598 64.1156 56.5558 64.6546 56.9478 65.076C57.3398 65.4974 57.8788 65.7032 58.555 65.6934C59.2312 65.6836 59.5742 65.419 59.5742 64.8996C59.5742 64.8408 59.5644 64.782 59.5448 64.7232H59.143C58.3688 64.7232 57.9768 64.3606 57.9768 63.6354C57.9768 62.9102 58.3688 62.5476 59.143 62.5476H61.0834C61.7498 62.5574 62.083 62.9494 62.083 63.7334Z" fill="white"/>
<path d="M69.6096 65.5464C69.6096 66.3696 69.2568 66.987 68.561 67.379C67.8554 67.7808 67.0616 67.9768 66.1698 67.9768C65.278 67.9768 64.4744 67.7808 63.7786 67.379C63.073 66.9772 62.73 66.3696 62.73 65.5464V60.3034C62.73 59.5488 63.1612 59.1764 64.0138 59.1764C64.8664 59.1764 65.2976 59.5488 65.2976 60.3034V65.174C65.2976 65.664 65.5916 65.909 66.1796 65.909C66.7676 65.909 67.0616 65.664 67.0616 65.174V60.3034C67.0616 59.5488 67.4928 59.1764 68.3454 59.1764C69.198 59.1764 69.6292 59.5488 69.6292 60.3034V65.5464H69.6096Z" fill="white"/>
<path d="M71.5402 67.918C70.6876 67.918 70.2563 67.5456 70.2563 66.791V60.3034C70.2563 59.5488 70.6876 59.1764 71.5402 59.1764H74.6468C75.3132 59.1764 75.6463 59.5194 75.6463 60.2054C75.6463 60.8914 75.3132 61.2344 74.6468 61.2344H72.8239V62.4888H74.3919C75.0583 62.4888 75.3916 62.8318 75.3916 63.5276C75.3916 64.2136 75.0583 64.5664 74.3919 64.5664H72.8239V65.86H74.6468C75.3132 65.86 75.6463 66.203 75.6463 66.889C75.6463 67.575 75.3132 67.918 74.6468 67.918H71.5402Z" fill="white"/>
<path d="M81.6634 64.2038L82.9472 65.8894C83.1334 66.1442 83.2314 66.4088 83.2314 66.693C83.2314 66.9772 83.055 67.2516 82.712 67.5162C82.369 67.7808 82.0456 67.918 81.7614 67.918C81.4674 67.918 81.2028 67.7416 80.9382 67.3888L78.8508 64.6056V66.791C78.8508 67.5456 78.4196 67.918 77.567 67.918C76.7144 67.918 76.2832 67.5456 76.2832 66.791V60.3034C76.2832 59.5488 76.7144 59.1764 77.567 59.1764H80.4678C81.1832 59.1764 81.781 59.4508 82.2514 59.9996C82.7218 60.5484 82.9668 61.1364 82.9668 61.7734C82.9766 62.9004 82.5356 63.7138 81.6634 64.2038ZM78.8606 60.9404V62.9298H79.5956C80.3208 62.9298 80.6834 62.5966 80.6834 61.9302C80.6834 61.2638 80.3208 60.9306 79.5956 60.9306H78.8606V60.9404Z" fill="white"/>
<path d="M86.3479 66.791C86.3479 67.5456 85.9167 67.918 85.0641 67.918C84.2115 67.918 83.7803 67.5456 83.7803 66.791V60.3034C83.7803 59.5488 84.2115 59.1764 85.0641 59.1764C85.9167 59.1764 86.3479 59.5488 86.3479 60.3034V66.791Z" fill="white"/>
<path d="M89.6409 66.3794L89.3959 67.036C89.1803 67.624 88.8177 67.918 88.3081 67.918C87.8083 67.918 87.4457 67.7612 87.2301 67.4574C87.0145 67.1536 86.9067 66.8694 86.9067 66.6244C86.9067 66.3794 86.9655 66.1344 87.0733 65.8992L89.7389 60.0584C90.0035 59.4704 90.4151 59.1764 90.9639 59.1764C91.5127 59.1764 91.9243 59.4704 92.1889 60.0584L94.8741 65.8992C94.9819 66.1442 95.0407 66.3892 95.0407 66.6342C95.0407 66.8792 94.9329 67.1536 94.7271 67.4672C94.5115 67.771 94.1587 67.9278 93.6393 67.9278C93.1297 67.9278 92.7573 67.6338 92.5417 67.0458L92.2967 66.3892H89.6409V66.3794ZM91.5127 64.3018L90.9541 62.7828L90.3955 64.3018H91.5127Z" fill="white"/>
<path d="M91.3456 72.2398C91.9728 72.2398 92.4824 72.7592 92.4628 73.3864L92.2864 80.2758L92.2276 82.03C92.1982 82.4612 92.1786 82.8924 92.0904 83.3236C92.0512 83.5392 92.0218 83.7548 91.963 83.9606C91.9042 84.1664 91.8454 84.382 91.7866 84.5878C91.2574 86.244 90.2676 87.7336 88.9642 88.8312L88.7192 89.037C88.6408 89.1056 88.5526 89.1644 88.4644 89.233C88.288 89.3604 88.1214 89.478 87.945 89.6054C87.5726 89.821 87.2198 90.0464 86.818 90.213C86.4358 90.3992 86.034 90.5364 85.6224 90.6638C85.4166 90.7324 85.2108 90.7716 85.005 90.8206C84.7992 90.8696 84.5934 90.9186 84.3778 90.9382C84.172 90.9676 83.9564 90.997 83.7506 91.0166C83.5448 91.0264 83.3292 91.0362 83.1234 91.0362L82.8098 91.046L82.5942 91.0362L82.163 91.0264L80.4382 90.9676L73.5488 90.752L45.9912 89.8798L18.4336 89.0076L11.5442 88.792L9.81942 88.7332L9.38822 88.7234L9.17262 88.7136L8.93742 88.694C8.78062 88.6842 8.62382 88.6744 8.46702 88.6548L8.00642 88.5666C7.78102 88.5372 7.57522 88.4588 7.34982 88.4C7.26162 88.3804 7.17342 88.351 7.09502 88.3216C6.81082 88.204 6.51682 88.0962 6.25222 87.9492C5.96802 87.8218 5.72302 87.6356 5.45842 87.469C5.33102 87.3808 5.21342 87.2828 5.09582 87.1848C5.03702 87.1358 4.97822 87.0868 4.91942 87.0378L4.75282 86.881C3.85122 86.0382 3.21422 84.9504 2.91042 83.7842L2.81242 83.3432C2.77322 83.1962 2.77322 83.0492 2.74382 82.8924C2.69482 82.5984 2.70462 82.2946 2.69482 81.9908C2.70462 81.4126 2.73402 80.8442 2.74382 80.266L2.95942 72.23L3.17502 80.266C3.19462 80.8344 3.20442 81.4126 3.23382 81.981C3.26322 82.2554 3.26322 82.5298 3.33182 82.7944C3.36122 82.9316 3.37102 83.0688 3.42002 83.1962L3.53762 83.5882C3.89042 84.6172 4.50782 85.5482 5.34082 86.2244L5.49762 86.3518C5.52702 86.3714 5.55642 86.4008 5.58582 86.4204C5.72302 86.5086 5.85042 86.6066 5.98762 86.6948C6.22282 86.8222 6.44822 86.9692 6.69322 87.0574C6.92842 87.175 7.18322 87.2436 7.42822 87.3318C7.49682 87.3514 7.57522 87.371 7.64382 87.3906C7.83002 87.4298 8.00642 87.4788 8.20242 87.4984L8.59442 87.5474C8.72182 87.5572 8.85902 87.5474 8.98642 87.5572H9.18242L9.39802 87.5474L9.82922 87.5376L11.554 87.4788L18.4434 87.2632L46.001 86.391L73.5586 85.5188L80.448 85.3032L82.1728 85.2444L82.604 85.2346L82.8196 85.2248L82.9372 85.2052L83.1626 85.1856C83.241 85.166 83.3096 85.1464 83.388 85.1366C83.4664 85.1268 83.535 85.0974 83.6036 85.0778C83.6722 85.0484 83.7506 85.0386 83.8192 85.0092C83.9564 84.9406 84.0936 84.9014 84.221 84.8132C84.3582 84.7544 84.466 84.6466 84.5934 84.578C84.6522 84.529 84.7012 84.48 84.76 84.431C84.7894 84.4114 84.8188 84.382 84.8482 84.3624L84.9266 84.284C85.348 83.8724 85.6224 83.3334 85.7596 82.7944C85.7694 82.7258 85.7792 82.6572 85.7988 82.5886C85.8184 82.52 85.8086 82.4514 85.8184 82.3828C85.8478 82.2456 85.8184 82.0986 85.8282 81.9614L85.7792 80.2758L85.6028 73.3864C85.5832 72.7592 86.083 72.2398 86.72 72.2398H91.3456Z" fill="white"/>
</svg>
